<?xml version="1.0" encoding="iso-8859-1"?>
<!-- Generator: Adobe Illustrator 19.0.0, SVG Export Plug-In . SVG Version: 6.00 Build 0)  -->
<svg xmlns="http://www.w3.org/2000/svg" xmlns:xlink="http://www.w3.org/1999/xlink" version="1.1" id="Capa_1" x="0px" y="0px" viewBox="0 0 512 512" style="enable-background:new 0 0 512 512;" xml:space="preserve" width="512px" height="512px">
<g>
	<g>
		<path d="M496.633,0H446.16c-8.474,0-15.367,6.893-15.367,15.366V65.84c0,8.474,6.893,15.366,15.367,15.366h50.473    c8.474,0,15.367-6.893,15.367-15.366V15.366C512,6.893,505.107,0,496.633,0z M496.999,65.84c0,0.185-0.181,0.365-0.366,0.365    H446.16c-0.185,0-0.366-0.181-0.366-0.365V15.366c0-0.185,0.181-0.365,0.366-0.365h50.473c0.185,0,0.366,0.181,0.366,0.365V65.84z    " fill="#FFFFFF"/>
	</g>
</g>
<g>
	<g>
		<path d="M65.84,0H15.367C6.893,0,0,6.893,0,15.366V65.84c0,8.474,6.893,15.366,15.367,15.366H65.84    c8.474,0,15.367-6.893,15.367-15.366V15.366C81.207,6.893,74.313,0,65.84,0z M66.206,65.84c0,0.185-0.181,0.365-0.366,0.365    H15.367c-0.185,0-0.366-0.181-0.366-0.365V15.366c0-0.184,0.181-0.365,0.366-0.365H65.84c0.185,0,0.366,0.181,0.366,0.365V65.84z" fill="#FFFFFF"/>
	</g>
</g>
<g>
	<g>
		<path d="M496.633,430.794H446.16c-8.474,0-15.367,6.893-15.367,15.366v50.474c0,8.474,6.893,15.366,15.367,15.366h50.473    c8.474,0,15.367-6.893,15.367-15.366V446.16C512,437.687,505.107,430.794,496.633,430.794z M496.999,496.634    c0,0.185-0.181,0.365-0.366,0.365H446.16c-0.185,0-0.366-0.181-0.366-0.365V446.16c0-0.185,0.181-0.365,0.366-0.365h50.473    c0.185,0,0.366,0.181,0.366,0.365V496.634z" fill="#FFFFFF"/>
	</g>
</g>
<g>
	<g>
		<path d="M65.84,430.794H15.367C6.893,430.794,0,437.687,0,446.16v50.474C0,505.108,6.893,512,15.367,512H65.84    c8.474,0,15.367-6.893,15.367-15.366V446.16C81.207,437.687,74.313,430.794,65.84,430.794z M66.206,496.634    c0,0.185-0.181,0.365-0.366,0.365H15.367c-0.185,0-0.366-0.181-0.366-0.365V446.16c0-0.185,0.181-0.365,0.366-0.365H65.84    c0.185,0,0.366,0.181,0.366,0.365V496.634z" fill="#FFFFFF"/>
	</g>
</g>
<g>
	<g>
		<path d="M471.397,240.486c-4.142,0-7.5,3.357-7.5,7.5v7.087c0,4.143,3.358,7.5,7.5,7.5c4.142,0,7.5-3.357,7.5-7.5v-7.087    C478.897,243.843,475.539,240.486,471.397,240.486z" fill="#FFFFFF"/>
	</g>
</g>
<g>
	<g>
		<path d="M471.397,197.965c-4.142,0-7.5,3.357-7.5,7.5v7.086c0,4.143,3.358,7.5,7.5,7.5c4.142,0,7.5-3.357,7.5-7.5v-7.086    C478.897,201.322,475.539,197.965,471.397,197.965z" fill="#FFFFFF"/>
	</g>
</g>
<g>
	<g>
		<path d="M471.397,368.048c-4.142,0-7.5,3.357-7.5,7.5v7.086c0,4.143,3.358,7.5,7.5,7.5c4.142,0,7.5-3.357,7.5-7.5v-7.086    C478.897,371.405,475.539,368.048,471.397,368.048z" fill="#FFFFFF"/>
	</g>
</g>
<g>
	<g>
		<path d="M471.397,112.923c-4.142,0-7.5,3.357-7.5,7.5v7.087c0,4.143,3.358,7.5,7.5,7.5c4.142,0,7.5-3.357,7.5-7.5v-7.087    C478.897,116.28,475.539,112.923,471.397,112.923z" fill="#FFFFFF"/>
	</g>
</g>
<g>
	<g>
		<path d="M471.397,155.444c-4.142,0-7.5,3.357-7.5,7.5v7.086c0,4.143,3.358,7.5,7.5,7.5c4.142,0,7.5-3.357,7.5-7.5v-7.086    C478.897,158.802,475.539,155.444,471.397,155.444z" fill="#FFFFFF"/>
	</g>
</g>
<g>
	<g>
		<path d="M471.397,325.528c-4.142,0-7.5,3.357-7.5,7.5v7.086c0,4.143,3.358,7.5,7.5,7.5c4.142,0,7.5-3.357,7.5-7.5v-7.086    C478.897,328.885,475.539,325.528,471.397,325.528z" fill="#FFFFFF"/>
	</g>
</g>
<g>
	<g>
		<path d="M471.397,283.006c-4.142,0-7.5,3.357-7.5,7.5v7.087c0,4.143,3.358,7.5,7.5,7.5c4.142,0,7.5-3.357,7.5-7.5v-7.087    C478.897,286.363,475.539,283.006,471.397,283.006z" fill="#FFFFFF"/>
	</g>
</g>
<g>
	<g>
		<path d="M40.603,240.486c-4.142,0-7.5,3.357-7.5,7.5v7.087c0,4.143,3.358,7.5,7.5,7.5s7.5-3.357,7.5-7.5v-7.087    C48.104,243.843,44.746,240.486,40.603,240.486z" fill="#FFFFFF"/>
	</g>
</g>
<g>
	<g>
		<path d="M40.603,283.006c-4.142,0-7.5,3.357-7.5,7.5v7.087c0,4.143,3.358,7.5,7.5,7.5s7.5-3.357,7.5-7.5v-7.087    C48.104,286.363,44.746,283.006,40.603,283.006z" fill="#FFFFFF"/>
	</g>
</g>
<g>
	<g>
		<path d="M40.603,197.965c-4.142,0-7.5,3.357-7.5,7.5v7.086c0,4.143,3.358,7.5,7.5,7.5s7.5-3.357,7.5-7.5v-7.086    C48.104,201.322,44.746,197.965,40.603,197.965z" fill="#FFFFFF"/>
	</g>
</g>
<g>
	<g>
		<path d="M40.603,325.528c-4.142,0-7.5,3.357-7.5,7.5v7.086c0,4.143,3.358,7.5,7.5,7.5s7.5-3.357,7.5-7.5v-7.086    C48.104,328.885,44.746,325.528,40.603,325.528z" fill="#FFFFFF"/>
	</g>
</g>
<g>
	<g>
		<path d="M40.603,155.444c-4.142,0-7.5,3.357-7.5,7.5v7.086c0,4.143,3.358,7.5,7.5,7.5s7.5-3.357,7.5-7.5v-7.086    C48.104,158.802,44.746,155.444,40.603,155.444z" fill="#FFFFFF"/>
	</g>
</g>
<g>
	<g>
		<path d="M40.603,112.923c-4.142,0-7.5,3.357-7.5,7.5v7.087c0,4.143,3.357,7.5,7.5,7.5c4.142,0,7.5-3.357,7.5-7.5v-7.087    C48.104,116.28,44.746,112.923,40.603,112.923z" fill="#FFFFFF"/>
	</g>
</g>
<g>
	<g>
		<path d="M40.603,368.048c-4.142,0-7.5,3.357-7.5,7.5v7.086c0,4.143,3.358,7.5,7.5,7.5s7.5-3.357,7.5-7.5v-7.086    C48.104,371.405,44.746,368.048,40.603,368.048z" fill="#FFFFFF"/>
	</g>
</g>
<g>
	<g>
		<path d="M255.072,33.103h-7.086c-4.142,0-7.5,3.357-7.5,7.5s3.358,7.5,7.5,7.5h7.086c4.142,0,7.5-3.357,7.5-7.5    S259.215,33.103,255.072,33.103z" fill="#FFFFFF"/>
	</g>
</g>
<g>
	<g>
		<path d="M212.552,33.103h-7.086c-4.142,0-7.5,3.357-7.5,7.5s3.358,7.5,7.5,7.5h7.086c4.142,0,7.5-3.357,7.5-7.5    S216.694,33.103,212.552,33.103z" fill="#FFFFFF"/>
	</g>
</g>
<g>
	<g>
		<path d="M170.031,33.103h-7.086c-4.142,0-7.5,3.357-7.5,7.5s3.357,7.5,7.5,7.5h7.086c4.142,0,7.5-3.357,7.5-7.5    S174.174,33.103,170.031,33.103z" fill="#FFFFFF"/>
	</g>
</g>
<g>
	<g>
		<path d="M127.51,33.103h-7.086c-4.142,0-7.5,3.357-7.5,7.5s3.358,7.5,7.5,7.5h7.086c4.142,0,7.5-3.357,7.5-7.5    S131.652,33.103,127.51,33.103z" fill="#FFFFFF"/>
	</g>
</g>
<g>
	<g>
		<path d="M382.635,33.103h-7.086c-4.142,0-7.5,3.357-7.5,7.5s3.358,7.5,7.5,7.5h7.086c4.142,0,7.5-3.357,7.5-7.5    S386.777,33.103,382.635,33.103z" fill="#FFFFFF"/>
	</g>
</g>
<g>
	<g>
		<path d="M297.593,33.103h-7.086c-4.142,0-7.5,3.357-7.5,7.5s3.358,7.5,7.5,7.5h7.086c4.142,0,7.5-3.357,7.5-7.5    S301.735,33.103,297.593,33.103z" fill="#FFFFFF"/>
	</g>
</g>
<g>
	<g>
		<path d="M340.115,33.103h-7.086c-4.142,0-7.5,3.357-7.5,7.5s3.358,7.5,7.5,7.5h7.086c4.142,0,7.5-3.357,7.5-7.5    S344.257,33.103,340.115,33.103z" fill="#FFFFFF"/>
	</g>
</g>
<g>
	<g>
		<path d="M382.635,463.895h-7.086c-4.142,0-7.5,3.357-7.5,7.5s3.358,7.5,7.5,7.5h7.086c4.142,0,7.5-3.357,7.5-7.5    S386.777,463.895,382.635,463.895z" fill="#FFFFFF"/>
	</g>
</g>
<g>
	<g>
		<path d="M127.51,463.895h-7.086c-4.142,0-7.5,3.357-7.5,7.5s3.358,7.5,7.5,7.5h7.086c4.142,0,7.5-3.357,7.5-7.5    S131.653,463.895,127.51,463.895z" fill="#FFFFFF"/>
	</g>
</g>
<g>
	<g>
		<path d="M255.073,463.895h-7.086c-4.142,0-7.5,3.357-7.5,7.5s3.358,7.5,7.5,7.5h7.086c4.142,0,7.5-3.357,7.5-7.5    S259.216,463.895,255.073,463.895z" fill="#FFFFFF"/>
	</g>
</g>
<g>
	<g>
		<path d="M212.552,463.895h-7.086c-4.142,0-7.5,3.357-7.5,7.5s3.358,7.5,7.5,7.5h7.086c4.142,0,7.5-3.357,7.5-7.5    S216.694,463.895,212.552,463.895z" fill="#FFFFFF"/>
	</g>
</g>
<g>
	<g>
		<path d="M170.031,463.895h-7.086c-4.142,0-7.5,3.357-7.5,7.5s3.358,7.5,7.5,7.5h7.086c4.142,0,7.5-3.357,7.5-7.5    S174.174,463.895,170.031,463.895z" fill="#FFFFFF"/>
	</g>
</g>
<g>
	<g>
		<path d="M297.594,463.895h-7.086c-4.142,0-7.5,3.357-7.5,7.5s3.358,7.5,7.5,7.5h7.086c4.142,0,7.5-3.357,7.5-7.5    S301.736,463.895,297.594,463.895z" fill="#FFFFFF"/>
	</g>
</g>
<g>
	<g>
		<path d="M340.115,463.895h-7.086c-4.142,0-7.5,3.357-7.5,7.5s3.358,7.5,7.5,7.5h7.086c4.142,0,7.5-3.357,7.5-7.5    S344.257,463.895,340.115,463.895z" fill="#FFFFFF"/>
	</g>
</g>
<g>
	<g>
		<path d="M284.056,157.923c-19.606,0-35.557,15.951-35.557,35.557c0,19.605,15.951,35.557,35.557,35.557    s35.557-15.951,35.557-35.557S303.662,157.923,284.056,157.923z M284.056,214.036c-11.335,0-20.556-9.222-20.556-20.556    c0-11.335,9.222-20.556,20.556-20.556s20.556,9.221,20.556,20.556C304.612,204.814,295.391,214.036,284.056,214.036z" fill="#FFFFFF"/>
	</g>
</g>
<g>
	<g>
		<path d="M394.94,103.154H272.839c-4.142,0-7.5,3.357-7.5,7.5s3.358,7.499,7.5,7.499h121.006v120.344c0,4.143,3.358,7.5,7.5,7.5    c4.142,0,7.5-3.357,7.5-7.5V117.06C408.846,109.393,402.607,103.154,394.94,103.154z" fill="#FFFFFF"/>
	</g>
</g>
<g>
	<g>
		<path d="M401.345,266c-4.142,0-7.5,3.357-7.5,7.5v74.184l-61.556-82.779c-3.254-4.377-7.977-6.887-12.954-6.887    c1,0-7.169-0.892-12.956,6.887l-30.853,41.492l-49.091-66.018c-7.54-10.14-20.952-10.132-28.487,0l-79.794,107.305v-229.53    h119.681c4.142,0,7.5-3.357,7.5-7.5s-3.358-7.5-7.5-7.5H117.06c-7.667,0-13.906,6.238-13.906,13.906v277.88    c0,7.667,6.238,13.905,13.906,13.905h0.037c11.862,0,265.995,0,277.794,0h0.049c7.667,0,13.906-6.237,13.906-13.905V394.9    c0,0,0-0.006,0-0.01V273.501C408.846,269.357,405.488,266,401.345,266z M118.156,393.845v-21.019h-0.001l91.831-123.493    c0.725-0.975,1.549-1.557,2.206-1.557s1.481,0.582,2.207,1.557l51.781,69.636l-55.678,74.877H118.156z M393.844,393.844H229.196    c0.859-1.156,88.365-118.836,89.221-119.986c0.467-0.628,0.843-0.821,0.897-0.84c0.095,0.019,0.47,0.212,0.937,0.84l73.592,98.966    V393.844z" fill="#FFFFFF"/>
	</g>
</g>
<g>
</g>
<g>
</g>
<g>
</g>
<g>
</g>
<g>
</g>
<g>
</g>
<g>
</g>
<g>
</g>
<g>
</g>
<g>
</g>
<g>
</g>
<g>
</g>
<g>
</g>
<g>
</g>
<g>
</g>
</svg>
