<?xml version="1.0"?>
<svg xmlns="http://www.w3.org/2000/svg" height="512px" viewBox="0 0 480 480" width="512px"><path d="m392 177.359375v-121.359375c0-.175781-.089844-.320312-.097656-.496094-.042969-.71875-.183594-1.429687-.421875-2.113281-.082031-.253906-.175781-.503906-.28125-.75-.371094-.828125-.886719-1.585937-1.519531-2.242187l-48-48c-.664063-.632813-1.433594-1.152344-2.273438-1.527344-.230469-.109375-.476562-.175782-.71875-.253906-.703125-.25-1.4375-.398438-2.183594-.441407-.214844-.097656-.34375-.175781-.503906-.175781h-240c-4.417969 0-8 3.582031-8 8v169.359375c-50.589844 7.90625-87.9101562 51.4375-88 102.640625v192c0 4.417969 3.582031 8 8 8h464c4.417969 0 8-3.582031 8-8v-192c-.089844-51.203125-37.410156-94.734375-88-102.640625zm-48-150.046875 20.6875 20.6875h-20.6875zm-240-11.3125h224v40c0 4.417969 3.582031 8 8 8h40v112h-272zm360 448h-448v-184c.054688-48.578125 39.421875-87.945312 88-88h272c48.578125.054688 87.945312 39.421875 88 88zm0 0" fill="#FFFFFF"/><path d="m376 360h-272c-4.417969 0-8 3.582031-8 8v80c0 4.417969 3.582031 8 8 8h272c4.417969 0 8-3.582031 8-8v-80c0-4.417969-3.582031-8-8-8zm-8 80h-256v-64h256zm0 0" fill="#FFFFFF"/><path d="m64 256c-13.253906 0-24 10.746094-24 24s10.746094 24 24 24 24-10.746094 24-24-10.746094-24-24-24zm0 32c-4.417969 0-8-3.582031-8-8s3.582031-8 8-8 8 3.582031 8 8-3.582031 8-8 8zm0 0" fill="#FFFFFF"/><path d="m64 320c-13.253906 0-24 10.746094-24 24s10.746094 24 24 24 24-10.746094 24-24-10.746094-24-24-24zm0 32c-4.417969 0-8-3.582031-8-8s3.582031-8 8-8 8 3.582031 8 8-3.582031 8-8 8zm0 0" fill="#FFFFFF"/><path d="m64 384c-13.253906 0-24 10.746094-24 24s10.746094 24 24 24 24-10.746094 24-24-10.746094-24-24-24zm0 32c-4.417969 0-8-3.582031-8-8s3.582031-8 8-8 8 3.582031 8 8-3.582031 8-8 8zm0 0" fill="#FFFFFF"/><path d="m144 256h192c4.417969 0 8-3.582031 8-8v-32c0-4.417969-3.582031-8-8-8h-192c-4.417969 0-8 3.582031-8 8v32c0 4.417969 3.582031 8 8 8zm8-32h176v16h-176zm0 0" fill="#FFFFFF"/></svg>
